# xmcd
# 
# Track frame offsets:
#     150
#     12671
#     30046
#     45564
#     68497
#     102258
#     119109
#     143683
#     170302
#     212496
# 
# Disc length: 3076
# 
# Revision: 0
# Processed by: cddbd v1.5.2PL0 Copyright (c) Steve Scherf et al.
# Submitted via: BonkEnc v1.0.5
# 
DISCID=7d0c020a
DTITLE=North Mississippi Allstars - Keep On Marchin' - Disc 1
DYEAR=2007
DGENRE=Blues
TTITLE0=Mississippi Bollweevil
TTITLE1=Run On
TTITLE2=Teasin' Brown
TTITLE3=Hurry Up Sunrise
TTITLE4=Mean Ol' Wind Died Down
TTITLE5=Bang Bang Lulu
TTITLE6=Shake 'Em On Down
TTITLE7=Goin' Down South
TTITLE8=Ship
TTITLE9=Moonshine
EXTD=
EXTT0=
EXTT1=
EXTT2=
EXTT3=
EXTT4=
EXTT5=
EXTT6=
EXTT7=
EXTT8=
EXTT9=
PLAYORDER=
